<?xml version="1.0" encoding="UTF-8"?>
<svg id="Layer_1" data-name="Layer 1" xmlns="http://www.w3.org/2000/svg" viewBox="0 0 522.91 493.16">
  <defs>
    <style>
      .cls-1 {
        fill: #fff;
      }
    </style>
  </defs>
  <path d="M435.73,222.62c5.02,39.59-.95,82.23-16.54,118.96-10.73,25.27-29.07,51.09-55.46,61.04-1.63,2.27,12.44,16.92,11.09,21.89,31.83-6.39,42.82,57.39,20.14,66.83-26.85,11.18-42.95-32.4-34.46-52.11-3.53-3.84-7-7.59-10-11.89-1.72-2.46-8.19-15.08-8.96-15.53-1.9-1.12-8.19,1.76-12.1.59-2.65-.79-22.48-26.57-23.76-30.25-2.12-6.09,3.03-11.99-.4-15.59-4.91-5.16-24.41-9.93-31.24-13.79l-1.85.75c-19.7,29.88-51.19,50.93-86.43,57.63-19.08,3.63-49.35,5.45-65.04-8.02-1.7-1.46-5.91-7.1-6.65-7.35-1.88-.63-4.86.01-7.4-.6-15.42-3.69-34.94-37.63-39.97-52.03-12.42-35.53-3.72-61.81,16.01-92.07l-18.99-81.46c-1.76.45-2.18,4.4-2.53,5.96-5.04,22.82-2.95,46.01-6.74,68.26-1.66,9.72-9.26,31.22-21.4,31.46-17.12.33-5.12-28.88-4.45-38.31,2.54-35.81-42.19-83.91-24.41-120.41,8.27-16.99,29.15-30.15,41.57-44.43,16.48-18.96,14.58-42.41,45.43-44.57,5.58-.39,13.74,1.33,18.36.44,5.49-1.05,18.07-10.77,24.16-13.93C173.25-6.4,242.96-.94,285.92,7.93c5.74,1.18,19.05,6.12,23.3,6.22,5.77.13,16.92-4.92,24.03-5.52,30.65-2.58,56.6,20.44,82.81,32.16,61.62,27.53,132.78,24.62,97.44,117.1-7.08,18.52-15.54,34.53-20.9,54.1-4.39,16.02-3.15,35.56-26.92,31.18-13.03-2.4-17.99-12.19-26.95-19.05-1-.77-1.27-1.94-3-1.49ZM315.73,69.62c31.96,10.11,57.18,41.92,75.81,68.68,16.15,23.2,48.27,88.18,73.96,96.04,6.2,1.9,11.07,2.42,14.27-4.17,4.08-8.38,6.27-26.34,9.93-37.07,10.39-30.44,39.82-72.67,15.99-102.96-15.54-19.76-64.6-29.35-88.49-39.51-24.12-10.26-52.36-34.17-78.94-34.05-9.15.04-25.14,6.68-31.96,6.02-2.27-.22-7.33-2.9-10.38-3.7-43.98-11.61-118.15-17.83-159.24,3.19-6.19,3.17-20.92,13.85-26.22,14.87-4.95.96-12.39-1.61-18.25-1.34-17.55.83-23.25,12.01-29.69,26.31-7.03,15.61-11.04,32.61-16.84,48.67-2.84,3.09-1.96-9.04-2.03-9.54l3.55-18.45c-9.13,8.47-20.5,17.98-28.53,27.47-17.25,20.39-8.89,40.44-.99,63.04,7.65,21.88,21.07,41.98,19,65.97-.36,4.14-6.31,26.14-4.98,27.51,9.12-1.73,12.24-14.66,13.7-22.79,2.94-16.29,2.32-33.18,4.42-49.58s8.56-32.52,10.81-47.19c.67-4.34-.41-9.56.02-13.98,2.03-21.06,10.94-52.83,25.06-68.94,1.7-1.94,3.5-3.6,5.97-4.52-.9,10.97-8.56,20.71-12.47,31.02-6.27,16.49-11.34,39.88-10.51,57.47,1.45,30.74,15.62,61.17,20,91.51,2.33.61,1.67-.57,2.29-1.27,3.59-4.14,22.71-30.58,22.72-34.22-25.22,1.12-37.34-23.88-30.03-46.03,7.4-22.44,34.28-25.56,44.21-3.17,16.36,36.88-21.87,74.17-39.6,102.77-2.32,3.74-17.53,29.84-15.58,31.91,5.05-1.75,9.41-5.03,14.32-7.17,21.66-9.42,70.7-19.58,87.65,1.7,16.34,20.53-9.51,58.34-27.06,70.88-3.65,2.61-13.02,5.4-11.4,9.54,3.32,8.49,9.33,9.04,17.28,10.76,41.94,9.06,90.57,5.93,116.23-32.18,7.01-10.41,10.48-22.45,18.49-31.52,1.12-.25,2.01.69,2.32,1.65,2.39,7.48-12.79,30.19-11.41,32.37,14.79,5.82,28.96,12.02,42.29,20.75,2.49,1.63,11.82,9.77,12.99,10.09,2.45.68,11.67-5.59,14.2-7.45,28.26-20.75,45.19-63.02,48.96-97.04,1.99-17.95,1.71-47.07-2.11-64.64-.44-2-1.12-3.89-2.71-5.29-4.76-4.96-31.58-19.17-33.53-23.46s1.79-15.32,2.36-20.61c1.35-12.53,2.15-34.67-2.36-46.4-1.15-2.99-12.45-13.74-15.5-16.5-6.67-6-21.98-15.42-26.57-21.43-1.04-1.37-1.84-2.08-1.44-4.05ZM416.72,195.62l-34.77-56.72c-1.36-1.38-10.41-15.09-12.22-13.27,3.25,16.52-1.1,33.23-1.79,49.8l21.47,14.08c1.67.26,2.51-2.31,4.03-2.74,4.26-1.21,18.2,7.71,23.27,8.86ZM104.44,150.79c-5.01,1.49-3.08,10.45,3.31,8.43s2.9-10.28-3.31-8.43ZM95.73,154.63c-2.67-.56-1.72.68-2.48,1.97-7.2,12.2-3.01,35.36,12.43,38.58,7.66,1.6,15.74.79,16.05-8.55-21.08,6.52-30.78-14.3-26-32ZM423.49,207.85l-19.76-7.23c2.78,23.76,5.36,46.52,2.99,70.49-4.88,49.35-31.84,107.18-83.99,119.51-.41,1.52.4,1.66.98,2.51.63.91,7.7,8.49,8.24,8.75,4.49,2.13,19.5-3.05,24.46-5.07,38.65-15.73,59.29-61.29,67.01-99.99,5.83-29.23,6.09-59.75.06-88.97ZM152.72,337.62c-17.72,3.67-25.45-22.64-7.4-24.92,10.79-1.36,12.51,8.13,18.88,6.95,3.83-1.87,6.39-9.73,7.07-13.98,1.03-6.48,1.2-10.8-3.03-16.07-15.42-19.19-65.19-6.8-84.2,2.84-12.9,6.54-17.51,11.26-11.5,25.86.72,1.75,5.02,10.63,7.16,9.3,2.21-5.85,10.77-4.59,14.68-.64,5.16,5.21,4.39,13.96,4.79,20.64,16.28,11.05,32.01,10.95,47.02-2.01,1.07-.92,7.72-6.93,6.52-7.97ZM153.31,323.04c-4.97-3.15-9.73-4.75-10.45,2.88,4.3,5.23,16.25,9.15,18.87.71-4.23.86-5.98-2.04-8.42-3.59ZM91.72,341.61c.17-4.56-2.24-12.83-8.02-9.52-1.71.98.3,3.03,1.03,4.02.64.86,6.02,6.62,6.99,5.5ZM73.74,336.62c2.88,13.03,11.69,27.11,20.03,37.46,8.79,10.9,14.28,17.74,28.28,9.36,10.03-6,11.93-9.32,4.69-19.33-21.83.15-39.15-11.84-53-27.49ZM232.73,381.63c-30.54,8.69-64.05,7.02-94.35-1.86-3.08,2.19-5.29,5.41-8.17,7.82-3.34,2.79-10.28,3.65-5.99,8.04,16.71,17.11,62.61,8.63,82.78.75,8.53-3.33,19.07-8.55,25.73-14.76ZM349.76,408.66c-1.33,1.86,12.83,22.57,14.45,22.69,1.82.14,3.59-1.86,3.36-3.98-.31-2.94-10.37-20.25-12.32-20.45l-5.5,1.74Z"/>
  <path class="cls-1" d="M315.73,69.62c-.4,1.97.4,2.68,1.44,4.05,4.58,6.02,19.9,15.43,26.57,21.43,3.06,2.75,14.36,13.51,15.5,16.5,4.5,11.72,3.7,33.86,2.36,46.4-.57,5.29-4.35,16.25-2.36,20.61s28.77,18.49,33.53,23.46c1.59,1.4,2.28,3.29,2.71,5.29,3.82,17.57,4.1,46.68,2.11,64.64-3.77,34.03-20.7,76.3-48.96,97.04-2.53,1.86-11.75,8.13-14.2,7.45-1.17-.33-10.51-8.47-12.99-10.09-13.34-8.72-27.5-14.93-42.29-20.75-1.38-2.18,13.8-24.89,11.41-32.37-.31-.96-1.2-1.9-2.32-1.65-8.02,9.07-11.48,21.11-18.49,31.52-25.66,38.11-74.29,41.23-116.23,32.18-7.95-1.72-13.96-2.27-17.28-10.76-1.62-4.14,7.74-6.92,11.4-9.54,17.55-12.54,43.41-50.35,27.06-70.88-16.94-21.29-65.99-11.12-87.65-1.7-4.91,2.14-9.27,5.42-14.32,7.17-1.95-2.07,13.26-28.17,15.58-31.91,17.73-28.61,55.96-65.9,39.6-102.77-9.93-22.39-36.81-19.27-44.21,3.17-7.31,22.15,4.81,47.15,30.03,46.03-.01,3.64-19.13,30.07-22.72,34.22-.61.71.04,1.89-2.29,1.27-4.38-30.34-18.55-60.78-20-91.51-.83-17.6,4.24-40.98,10.51-57.47,3.92-10.31,11.57-20.05,12.47-31.02-2.46.92-4.26,2.58-5.97,4.52-14.13,16.11-23.04,47.87-25.06,68.94-.43,4.42.65,9.64-.02,13.98-2.26,14.67-8.73,30.87-10.81,47.19s-1.48,33.3-4.42,49.58c-1.47,8.13-4.59,21.05-13.7,22.79-1.33-1.37,4.62-23.37,4.98-27.51,2.07-23.99-11.36-44.08-19-65.97-7.9-22.61-16.25-42.66.99-63.04,8.03-9.49,19.4-19,28.53-27.47l-3.55,18.45c.07.51-.81,12.63,2.03,9.54,5.8-16.07,9.8-33.07,16.84-48.67,6.44-14.3,12.14-25.48,29.69-26.31,5.85-.28,13.3,2.3,18.25,1.34,5.3-1.03,20.02-11.7,26.22-14.87,41.09-21.03,115.25-14.8,159.24-3.19,3.04.8,8.1,3.48,10.38,3.7,6.81.66,22.8-5.99,31.96-6.02,26.58-.11,54.82,23.8,78.94,34.05,23.89,10.16,72.95,19.75,88.49,39.51,23.82,30.29-5.61,72.52-15.99,102.96-3.66,10.73-5.86,28.68-9.93,37.07-3.2,6.59-8.06,6.07-14.27,4.17-25.7-7.86-57.81-72.83-73.96-96.04-18.63-26.76-43.85-58.56-75.81-68.68ZM76.74,116.62c3.22,2.83,10.18-12.77,12.5-14.99,3.2-3.08,8.85-4.54,12.02-7.98,1.94-3.5-4.09-3.16-5.94-2.95-10.42,1.19-22.06,15.21-18.58,25.92ZM215.18,121.04c-28.44,32.54,7.98,87.85,51.22,62.75,51.45-29.86-17.43-101.41-51.22-62.75Z"/>
  <path class="cls-1" d="M152.72,337.62c1.19,1.04-5.46,7.04-6.52,7.97-15.01,12.96-30.73,13.07-47.02,2.01-.4-6.68.37-15.44-4.79-20.64-3.92-3.95-12.48-5.21-14.68.64-2.13,1.33-6.44-7.56-7.16-9.3-6.01-14.59-1.4-19.31,11.5-25.86,19.01-9.64,68.78-22.04,84.2-2.84,4.23,5.27,4.06,9.59,3.03,16.07-.68,4.25-3.24,12.11-7.07,13.98-6.37,1.18-8.09-8.31-18.88-6.95-18.05,2.28-10.32,28.59,7.4,24.92Z"/>
  <path class="cls-1" d="M423.49,207.85c6.03,29.22,5.77,59.74-.06,88.97-7.72,38.69-28.37,84.25-67.01,99.99-4.96,2.02-19.97,7.2-24.46,5.07-.54-.26-7.62-7.84-8.24-8.75-.59-.85-1.39-.99-.98-2.51,52.15-12.34,79.11-70.17,83.99-119.51,2.37-23.97-.21-46.73-2.99-70.49l19.76,7.23Z"/>
  <path class="cls-1" d="M232.73,381.63c-6.66,6.2-17.2,11.42-25.73,14.76-20.17,7.88-66.07,16.36-82.78-.75-4.29-4.39,2.65-5.25,5.99-8.04,2.88-2.41,5.09-5.63,8.17-7.82,30.31,8.87,63.82,10.55,94.35,1.86Z"/>
  <path class="cls-1" d="M416.72,195.62c-5.07-1.15-19.01-10.07-23.27-8.86-1.52.43-2.36,3-4.03,2.74l-21.47-14.08c.69-16.56,5.04-33.28,1.79-49.8,1.8-1.81,10.86,11.89,12.22,13.27l34.77,56.72Z"/>
  <path class="cls-1" d="M73.74,336.62c13.86,15.64,31.17,27.63,53,27.49,7.23,10.01,5.34,13.33-4.69,19.33-14,8.38-19.49,1.54-28.28-9.36-8.34-10.35-17.15-24.43-20.03-37.46Z"/>
  <path class="cls-1" d="M95.73,154.63c-4.79,17.69,4.92,38.52,26,32-.31,9.34-8.4,10.15-16.05,8.55-15.44-3.22-19.62-26.38-12.43-38.58.76-1.29-.18-2.53,2.48-1.97Z"/>
  <path class="cls-1" d="M349.76,408.66l5.5-1.74c1.95.2,12.01,17.51,12.32,20.45.22,2.12-1.54,4.11-3.36,3.98-1.62-.12-15.78-20.83-14.45-22.69Z"/>
  <path class="cls-1" d="M153.31,323.04c2.44,1.54,4.19,4.44,8.42,3.59-2.63,8.45-14.57,4.52-18.87-.71.72-7.63,5.49-6.03,10.45-2.88Z"/>
  <path class="cls-1" d="M104.44,150.79c6.21-1.84,9.78,6.4,3.31,8.43s-8.32-6.95-3.31-8.43Z"/>
  <path class="cls-1" d="M91.72,341.61c-.97,1.12-6.35-4.65-6.99-5.5-.73-.98-2.74-3.03-1.03-4.02,5.78-3.32,8.19,4.96,8.02,9.52Z"/>
  <path d="M215.18,121.04c33.79-38.66,102.67,32.89,51.22,62.75-43.24,25.1-79.66-30.21-51.22-62.75ZM229.72,121.62c-18.98,6.08-19.59,33.63-9.43,47.93,13.53,19.05,46.5,14.56,54.43-6.94-21.16,20.92-53.7,3.55-51.03-25.54.59-6.45,3.4-9.96,6.04-15.45ZM242.45,123.82c-6.67,1.97-3.51,12.79,4.31,10.39,8.79-2.69,4.03-12.85-4.31-10.39Z"/>
  <path d="M76.74,116.62c-3.48-10.71,8.17-24.73,18.58-25.92,1.85-.21,7.88-.55,5.94,2.95-3.18,3.44-8.83,4.9-12.02,7.98-2.31,2.23-9.28,17.82-12.5,14.99Z"/>
  <path class="cls-1" d="M229.72,121.62c-2.64,5.5-5.45,9-6.04,15.45-2.67,29.1,29.87,46.46,51.03,25.54-7.93,21.5-40.9,25.99-54.43,6.94-10.16-14.3-9.55-41.85,9.43-47.93Z"/>
  <path class="cls-1" d="M242.45,123.82c8.34-2.46,13.11,7.7,4.31,10.39-7.82,2.39-10.99-8.43-4.31-10.39Z"/>
</svg>